<?xml version="1.0" encoding="utf-8" standalone="no"?>
<!DOCTYPE svg PUBLIC "-//W3C//DTD SVG 1.1//EN"
  "http://www.w3.org/Graphics/SVG/1.1/DTD/svg11.dtd">
<svg xmlns:xlink="http://www.w3.org/1999/xlink" width="720pt" height="432pt" viewBox="0 0 720 432" xmlns="http://www.w3.org/2000/svg" version="1.1">
 <metadata>
  <rdf:RDF xmlns:dc="http://purl.org/dc/elements/1.1/" xmlns:cc="http://creativecommons.org/ns#" xmlns:rdf="http://www.w3.org/1999/02/22-rdf-syntax-ns#">
   <cc:Work>
    <dc:type rdf:resource="http://purl.org/dc/dcmitype/StillImage"/>
    <dc:date>2024-07-11T12:17:22.479999</dc:date>
    <dc:format>image/svg+xml</dc:format>
    <dc:creator>
     <cc:Agent>
      <dc:title>Matplotlib v3.9.0, https://matplotlib.org/</dc:title>
     </cc:Agent>
    </dc:creator>
   </cc:Work>
  </rdf:RDF>
 </metadata>
 <defs>
  <style type="text/css">*{stroke-linejoin: round; stroke-linecap: butt}</style>
 </defs>
 <g id="figure_1">
  <g id="patch_1">
   <path d="M 0 432 
L 720 432 
L 720 0 
L 0 0 
z
" style="fill: #ffffff"/>
  </g>
  <g id="axes_1">
   <g id="patch_2">
    <path d="M 81.65 383.56 
L 709.2 383.56 
L 709.2 28.32 
L 81.65 28.32 
z
" style="fill: #ffffff"/>
   </g>
   <g id="matplotlib.axis_1">
    <g id="xtick_1">
     <g id="line2d_1">
      <path d="M 81.65 383.56 
L 81.65 28.32 
" clip-path="url(#p08101ed7b1)" style="fill: none; stroke-dasharray: 1.85,0.8; stroke-dashoffset: 0; stroke: #b0b0b0; stroke-width: 0.5"/>
     </g>
     <g id="line2d_2">
      <defs>
       <path id="m0e3fdb6140" d="M 0 0 
L 0 3.5 
" style="stroke: #000000; stroke-width: 0.8"/>
      </defs>
      <g>
       <use xlink:href="#m0e3fdb6140" x="81.65" y="383.56" style="stroke: #000000; stroke-width: 0.8"/>
      </g>
     </g>
     <g id="text_1">
      <!-- 0 -->
      <g transform="translate(77.8325 399.678125) scale(0.12 -0.12)">
       <defs>
        <path id="DejaVuSans-30" d="M 2034 4250 
Q 1547 4250 1301 3770 
Q 1056 3291 1056 2328 
Q 1056 1369 1301 889 
Q 1547 409 2034 409 
Q 2525 409 2770 889 
Q 3016 1369 3016 2328 
Q 3016 3291 2770 3770 
Q 2525 4250 2034 4250 
z
M 2034 4750 
Q 2819 4750 3233 4129 
Q 3647 3509 3647 2328 
Q 3647 1150 3233 529 
Q 2819 -91 2034 -91 
Q 1250 -91 836 529 
Q 422 1150 422 2328 
Q 422 3509 836 4129 
Q 1250 4750 2034 4750 
z
" transform="scale(0.015625)"/>
       </defs>
       <use xlink:href="#DejaVuSans-30"/>
      </g>
     </g>
    </g>
    <g id="xtick_2">
     <g id="line2d_3">
      <path d="M 144.405 383.56 
L 144.405 28.32 
" clip-path="url(#p08101ed7b1)" style="fill: none; stroke-dasharray: 1.85,0.8; stroke-dashoffset: 0; stroke: #b0b0b0; stroke-width: 0.5"/>
     </g>
     <g id="line2d_4">
      <g>
       <use xlink:href="#m0e3fdb6140" x="144.405" y="383.56" style="stroke: #000000; stroke-width: 0.8"/>
      </g>
     </g>
     <g id="text_2">
      <!-- 876 -->
      <g transform="translate(132.9525 399.678125) scale(0.12 -0.12)">
       <defs>
        <path id="DejaVuSans-38" d="M 2034 2216 
Q 1584 2216 1326 1975 
Q 1069 1734 1069 1313 
Q 1069 891 1326 650 
Q 1584 409 2034 409 
Q 2484 409 2743 651 
Q 3003 894 3003 1313 
Q 3003 1734 2745 1975 
Q 2488 2216 2034 2216 
z
M 1403 2484 
Q 997 2584 770 2862 
Q 544 3141 544 3541 
Q 544 4100 942 4425 
Q 1341 4750 2034 4750 
Q 2731 4750 3128 4425 
Q 3525 4100 3525 3541 
Q 3525 3141 3298 2862 
Q 3072 2584 2669 2484 
Q 3125 2378 3379 2068 
Q 3634 1759 3634 1313 
Q 3634 634 3220 271 
Q 2806 -91 2034 -91 
Q 1263 -91 848 271 
Q 434 634 434 1313 
Q 434 1759 690 2068 
Q 947 2378 1403 2484 
z
M 1172 3481 
Q 1172 3119 1398 2916 
Q 1625 2713 2034 2713 
Q 2441 2713 2670 2916 
Q 2900 3119 2900 3481 
Q 2900 3844 2670 4047 
Q 2441 4250 2034 4250 
Q 1625 4250 1398 4047 
Q 1172 3844 1172 3481 
z
" transform="scale(0.015625)"/>
        <path id="DejaVuSans-37" d="M 525 4666 
L 3525 4666 
L 3525 4397 
L 1831 0 
L 1172 0 
L 2766 4134 
L 525 4134 
L 525 4666 
z
" transform="scale(0.015625)"/>
        <path id="DejaVuSans-36" d="M 2113 2584 
Q 1688 2584 1439 2293 
Q 1191 2003 1191 1497 
Q 1191 994 1439 701 
Q 1688 409 2113 409 
Q 2538 409 2786 701 
Q 3034 994 3034 1497 
Q 3034 2003 2786 2293 
Q 2538 2584 2113 2584 
z
M 3366 4563 
L 3366 3988 
Q 3128 4100 2886 4159 
Q 2644 4219 2406 4219 
Q 1781 4219 1451 3797 
Q 1122 3375 1075 2522 
Q 1259 2794 1537 2939 
Q 1816 3084 2150 3084 
Q 2853 3084 3261 2657 
Q 3669 2231 3669 1497 
Q 3669 778 3244 343 
Q 2819 -91 2113 -91 
Q 1303 -91 875 529 
Q 447 1150 447 2328 
Q 447 3434 972 4092 
Q 1497 4750 2381 4750 
Q 2619 4750 2861 4703 
Q 3103 4656 3366 4563 
z
" transform="scale(0.015625)"/>
       </defs>
       <use xlink:href="#DejaVuSans-38"/>
       <use xlink:href="#DejaVuSans-37" x="63.623047"/>
       <use xlink:href="#DejaVuSans-36" x="127.246094"/>
      </g>
     </g>
    </g>
    <g id="xtick_3">
     <g id="line2d_5">
      <path d="M 207.16 383.56 
L 207.16 28.32 
" clip-path="url(#p08101ed7b1)" style="fill: none; stroke-dasharray: 1.85,0.8; stroke-dashoffset: 0; stroke: #b0b0b0; stroke-width: 0.5"/>
     </g>
     <g id="line2d_6">
      <g>
       <use xlink:href="#m0e3fdb6140" x="207.16" y="383.56" style="stroke: #000000; stroke-width: 0.8"/>
      </g>
     </g>
     <g id="text_3">
      <!-- 1752 -->
      <g transform="translate(191.89 399.678125) scale(0.12 -0.12)">
       <defs>
        <path id="DejaVuSans-31" d="M 794 531 
L 1825 531 
L 1825 4091 
L 703 3866 
L 703 4441 
L 1819 4666 
L 2450 4666 
L 2450 531 
L 3481 531 
L 3481 0 
L 794 0 
L 794 531 
z
" transform="scale(0.015625)"/>
        <path id="DejaVuSans-35" d="M 691 4666 
L 3169 4666 
L 3169 4134 
L 1269 4134 
L 1269 2991 
Q 1406 3038 1543 3061 
Q 1681 3084 1819 3084 
Q 2600 3084 3056 2656 
Q 3513 2228 3513 1497 
Q 3513 744 3044 326 
Q 2575 -91 1722 -91 
Q 1428 -91 1123 -41 
Q 819 9 494 109 
L 494 744 
Q 775 591 1075 516 
Q 1375 441 1709 441 
Q 2250 441 2565 725 
Q 2881 1009 2881 1497 
Q 2881 1984 2565 2268 
Q 2250 2553 1709 2553 
Q 1456 2553 1204 2497 
Q 953 2441 691 2322 
L 691 4666 
z
" transform="scale(0.015625)"/>
        <path id="DejaVuSans-32" d="M 1228 531 
L 3431 531 
L 3431 0 
L 469 0 
L 469 531 
Q 828 903 1448 1529 
Q 2069 2156 2228 2338 
Q 2531 2678 2651 2914 
Q 2772 3150 2772 3378 
Q 2772 3750 2511 3984 
Q 2250 4219 1831 4219 
Q 1534 4219 1204 4116 
Q 875 4013 500 3803 
L 500 4441 
Q 881 4594 1212 4672 
Q 1544 4750 1819 4750 
Q 2544 4750 2975 4387 
Q 3406 4025 3406 3419 
Q 3406 3131 3298 2873 
Q 3191 2616 2906 2266 
Q 2828 2175 2409 1742 
Q 1991 1309 1228 531 
z
" transform="scale(0.015625)"/>
       </defs>
       <use xlink:href="#DejaVuSans-31"/>
       <use xlink:href="#DejaVuSans-37" x="63.623047"/>
       <use xlink:href="#DejaVuSans-35" x="127.246094"/>
       <use xlink:href="#DejaVuSans-32" x="190.869141"/>
      </g>
     </g>
    </g>
    <g id="xtick_4">
     <g id="line2d_7">
      <path d="M 269.915 383.56 
L 269.915 28.32 
" clip-path="url(#p08101ed7b1)" style="fill: none; stroke-dasharray: 1.85,0.8; stroke-dashoffset: 0; stroke: #b0b0b0; stroke-width: 0.5"/>
     </g>
     <g id="line2d_8">
      <g>
       <use xlink:href="#m0e3fdb6140" x="269.915" y="383.56" style="stroke: #000000; stroke-width: 0.8"/>
      </g>
     </g>
     <g id="text_4">
      <!-- 2628 -->
      <g transform="translate(254.645 399.678125) scale(0.12 -0.12)">
       <use xlink:href="#DejaVuSans-32"/>
       <use xlink:href="#DejaVuSans-36" x="63.623047"/>
       <use xlink:href="#DejaVuSans-32" x="127.246094"/>
       <use xlink:href="#DejaVuSans-38" x="190.869141"/>
      </g>
     </g>
    </g>
    <g id="xtick_5">
     <g id="line2d_9">
      <path d="M 332.67 383.56 
L 332.67 28.32 
" clip-path="url(#p08101ed7b1)" style="fill: none; stroke-dasharray: 1.85,0.8; stroke-dashoffset: 0; stroke: #b0b0b0; stroke-width: 0.5"/>
     </g>
     <g id="line2d_10">
      <g>
       <use xlink:href="#m0e3fdb6140" x="332.67" y="383.56" style="stroke: #000000; stroke-width: 0.8"/>
      </g>
     </g>
     <g id="text_5">
      <!-- 3504 -->
      <g transform="translate(317.4 399.678125) scale(0.12 -0.12)">
       <defs>
        <path id="DejaVuSans-33" d="M 2597 2516 
Q 3050 2419 3304 2112 
Q 3559 1806 3559 1356 
Q 3559 666 3084 287 
Q 2609 -91 1734 -91 
Q 1441 -91 1130 -33 
Q 819 25 488 141 
L 488 750 
Q 750 597 1062 519 
Q 1375 441 1716 441 
Q 2309 441 2620 675 
Q 2931 909 2931 1356 
Q 2931 1769 2642 2001 
Q 2353 2234 1838 2234 
L 1294 2234 
L 1294 2753 
L 1863 2753 
Q 2328 2753 2575 2939 
Q 2822 3125 2822 3475 
Q 2822 3834 2567 4026 
Q 2313 4219 1838 4219 
Q 1578 4219 1281 4162 
Q 984 4106 628 3988 
L 628 4550 
Q 988 4650 1302 4700 
Q 1616 4750 1894 4750 
Q 2613 4750 3031 4423 
Q 3450 4097 3450 3541 
Q 3450 3153 3228 2886 
Q 3006 2619 2597 2516 
z
" transform="scale(0.015625)"/>
        <path id="DejaVuSans-34" d="M 2419 4116 
L 825 1625 
L 2419 1625 
L 2419 4116 
z
M 2253 4666 
L 3047 4666 
L 3047 1625 
L 3713 1625 
L 3713 1100 
L 3047 1100 
L 3047 0 
L 2419 0 
L 2419 1100 
L 313 1100 
L 313 1709 
L 2253 4666 
z
" transform="scale(0.015625)"/>
       </defs>
       <use xlink:href="#DejaVuSans-33"/>
       <use xlink:href="#DejaVuSans-35" x="63.623047"/>
       <use xlink:href="#DejaVuSans-30" x="127.246094"/>
       <use xlink:href="#DejaVuSans-34" x="190.869141"/>
      </g>
     </g>
    </g>
    <g id="xtick_6">
     <g id="line2d_11">
      <path d="M 395.425 383.56 
L 395.425 28.32 
" clip-path="url(#p08101ed7b1)" style="fill: none; stroke-dasharray: 1.85,0.8; stroke-dashoffset: 0; stroke: #b0b0b0; stroke-width: 0.5"/>
     </g>
     <g id="line2d_12">
      <g>
       <use xlink:href="#m0e3fdb6140" x="395.425" y="383.56" style="stroke: #000000; stroke-width: 0.8"/>
      </g>
     </g>
     <g id="text_6">
      <!-- 4380 -->
      <g transform="translate(380.155 399.678125) scale(0.12 -0.12)">
       <use xlink:href="#DejaVuSans-34"/>
       <use xlink:href="#DejaVuSans-33" x="63.623047"/>
       <use xlink:href="#DejaVuSans-38" x="127.246094"/>
       <use xlink:href="#DejaVuSans-30" x="190.869141"/>
      </g>
     </g>
    </g>
    <g id="xtick_7">
     <g id="line2d_13">
      <path d="M 458.18 383.56 
L 458.18 28.32 
" clip-path="url(#p08101ed7b1)" style="fill: none; stroke-dasharray: 1.85,0.8; stroke-dashoffset: 0; stroke: #b0b0b0; stroke-width: 0.5"/>
     </g>
     <g id="line2d_14">
      <g>
       <use xlink:href="#m0e3fdb6140" x="458.18" y="383.56" style="stroke: #000000; stroke-width: 0.8"/>
      </g>
     </g>
     <g id="text_7">
      <!-- 5256 -->
      <g transform="translate(442.91 399.678125) scale(0.12 -0.12)">
       <use xlink:href="#DejaVuSans-35"/>
       <use xlink:href="#DejaVuSans-32" x="63.623047"/>
       <use xlink:href="#DejaVuSans-35" x="127.246094"/>
       <use xlink:href="#DejaVuSans-36" x="190.869141"/>
      </g>
     </g>
    </g>
    <g id="xtick_8">
     <g id="line2d_15">
      <path d="M 520.935 383.56 
L 520.935 28.32 
" clip-path="url(#p08101ed7b1)" style="fill: none; stroke-dasharray: 1.85,0.8; stroke-dashoffset: 0; stroke: #b0b0b0; stroke-width: 0.5"/>
     </g>
     <g id="line2d_16">
      <g>
       <use xlink:href="#m0e3fdb6140" x="520.935" y="383.56" style="stroke: #000000; stroke-width: 0.8"/>
      </g>
     </g>
     <g id="text_8">
      <!-- 6132 -->
      <g transform="translate(505.665 399.678125) scale(0.12 -0.12)">
       <use xlink:href="#DejaVuSans-36"/>
       <use xlink:href="#DejaVuSans-31" x="63.623047"/>
       <use xlink:href="#DejaVuSans-33" x="127.246094"/>
       <use xlink:href="#DejaVuSans-32" x="190.869141"/>
      </g>
     </g>
    </g>
    <g id="xtick_9">
     <g id="line2d_17">
      <path d="M 583.69 383.56 
L 583.69 28.32 
" clip-path="url(#p08101ed7b1)" style="fill: none; stroke-dasharray: 1.85,0.8; stroke-dashoffset: 0; stroke: #b0b0b0; stroke-width: 0.5"/>
     </g>
     <g id="line2d_18">
      <g>
       <use xlink:href="#m0e3fdb6140" x="583.69" y="383.56" style="stroke: #000000; stroke-width: 0.8"/>
      </g>
     </g>
     <g id="text_9">
      <!-- 7008 -->
      <g transform="translate(568.42 399.678125) scale(0.12 -0.12)">
       <use xlink:href="#DejaVuSans-37"/>
       <use xlink:href="#DejaVuSans-30" x="63.623047"/>
       <use xlink:href="#DejaVuSans-30" x="127.246094"/>
       <use xlink:href="#DejaVuSans-38" x="190.869141"/>
      </g>
     </g>
    </g>
    <g id="xtick_10">
     <g id="line2d_19">
      <path d="M 646.445 383.56 
L 646.445 28.32 
" clip-path="url(#p08101ed7b1)" style="fill: none; stroke-dasharray: 1.85,0.8; stroke-dashoffset: 0; stroke: #b0b0b0; stroke-width: 0.5"/>
     </g>
     <g id="line2d_20">
      <g>
       <use xlink:href="#m0e3fdb6140" x="646.445" y="383.56" style="stroke: #000000; stroke-width: 0.8"/>
      </g>
     </g>
     <g id="text_10">
      <!-- 7884 -->
      <g transform="translate(631.175 399.678125) scale(0.12 -0.12)">
       <use xlink:href="#DejaVuSans-37"/>
       <use xlink:href="#DejaVuSans-38" x="63.623047"/>
       <use xlink:href="#DejaVuSans-38" x="127.246094"/>
       <use xlink:href="#DejaVuSans-34" x="190.869141"/>
      </g>
     </g>
    </g>
    <g id="text_11">
     <!-- Time Step [h] -->
     <g transform="translate(348.010938 416.811562) scale(0.14 -0.14)">
      <defs>
       <path id="DejaVuSans-54" d="M -19 4666 
L 3928 4666 
L 3928 4134 
L 2272 4134 
L 2272 0 
L 1638 0 
L 1638 4134 
L -19 4134 
L -19 4666 
z
" transform="scale(0.015625)"/>
       <path id="DejaVuSans-69" d="M 603 3500 
L 1178 3500 
L 1178 0 
L 603 0 
L 603 3500 
z
M 603 4863 
L 1178 4863 
L 1178 4134 
L 603 4134 
L 603 4863 
z
" transform="scale(0.015625)"/>
       <path id="DejaVuSans-6d" d="M 3328 2828 
Q 3544 3216 3844 3400 
Q 4144 3584 4550 3584 
Q 5097 3584 5394 3201 
Q 5691 2819 5691 2113 
L 5691 0 
L 5113 0 
L 5113 2094 
Q 5113 2597 4934 2840 
Q 4756 3084 4391 3084 
Q 3944 3084 3684 2787 
Q 3425 2491 3425 1978 
L 3425 0 
L 2847 0 
L 2847 2094 
Q 2847 2600 2669 2842 
Q 2491 3084 2119 3084 
Q 1678 3084 1418 2786 
Q 1159 2488 1159 1978 
L 1159 0 
L 581 0 
L 581 3500 
L 1159 3500 
L 1159 2956 
Q 1356 3278 1631 3431 
Q 1906 3584 2284 3584 
Q 2666 3584 2933 3390 
Q 3200 3197 3328 2828 
z
" transform="scale(0.015625)"/>
       <path id="DejaVuSans-65" d="M 3597 1894 
L 3597 1613 
L 953 1613 
Q 991 1019 1311 708 
Q 1631 397 2203 397 
Q 2534 397 2845 478 
Q 3156 559 3463 722 
L 3463 178 
Q 3153 47 2828 -22 
Q 2503 -91 2169 -91 
Q 1331 -91 842 396 
Q 353 884 353 1716 
Q 353 2575 817 3079 
Q 1281 3584 2069 3584 
Q 2775 3584 3186 3129 
Q 3597 2675 3597 1894 
z
M 3022 2063 
Q 3016 2534 2758 2815 
Q 2500 3097 2075 3097 
Q 1594 3097 1305 2825 
Q 1016 2553 972 2059 
L 3022 2063 
z
" transform="scale(0.015625)"/>
       <path id="DejaVuSans-20" transform="scale(0.015625)"/>
       <path id="DejaVuSans-53" d="M 3425 4513 
L 3425 3897 
Q 3066 4069 2747 4153 
Q 2428 4238 2131 4238 
Q 1616 4238 1336 4038 
Q 1056 3838 1056 3469 
Q 1056 3159 1242 3001 
Q 1428 2844 1947 2747 
L 2328 2669 
Q 3034 2534 3370 2195 
Q 3706 1856 3706 1288 
Q 3706 609 3251 259 
Q 2797 -91 1919 -91 
Q 1588 -91 1214 -16 
Q 841 59 441 206 
L 441 856 
Q 825 641 1194 531 
Q 1563 422 1919 422 
Q 2459 422 2753 634 
Q 3047 847 3047 1241 
Q 3047 1584 2836 1778 
Q 2625 1972 2144 2069 
L 1759 2144 
Q 1053 2284 737 2584 
Q 422 2884 422 3419 
Q 422 4038 858 4394 
Q 1294 4750 2059 4750 
Q 2388 4750 2728 4690 
Q 3069 4631 3425 4513 
z
" transform="scale(0.015625)"/>
       <path id="DejaVuSans-74" d="M 1172 4494 
L 1172 3500 
L 2356 3500 
L 2356 3053 
L 1172 3053 
L 1172 1153 
Q 1172 725 1289 603 
Q 1406 481 1766 481 
L 2356 481 
L 2356 0 
L 1766 0 
Q 1100 0 847 248 
Q 594 497 594 1153 
L 594 3053 
L 172 3053 
L 172 3500 
L 594 3500 
L 594 4494 
L 1172 4494 
z
" transform="scale(0.015625)"/>
       <path id="DejaVuSans-70" d="M 1159 525 
L 1159 -1331 
L 581 -1331 
L 581 3500 
L 1159 3500 
L 1159 2969 
Q 1341 3281 1617 3432 
Q 1894 3584 2278 3584 
Q 2916 3584 3314 3078 
Q 3713 2572 3713 1747 
Q 3713 922 3314 415 
Q 2916 -91 2278 -91 
Q 1894 -91 1617 61 
Q 1341 213 1159 525 
z
M 3116 1747 
Q 3116 2381 2855 2742 
Q 2594 3103 2138 3103 
Q 1681 3103 1420 2742 
Q 1159 2381 1159 1747 
Q 1159 1113 1420 752 
Q 1681 391 2138 391 
Q 2594 391 2855 752 
Q 3116 1113 3116 1747 
z
" transform="scale(0.015625)"/>
       <path id="DejaVuSans-5b" d="M 550 4863 
L 1875 4863 
L 1875 4416 
L 1125 4416 
L 1125 -397 
L 1875 -397 
L 1875 -844 
L 550 -844 
L 550 4863 
z
" transform="scale(0.015625)"/>
       <path id="DejaVuSans-68" d="M 3513 2113 
L 3513 0 
L 2938 0 
L 2938 2094 
Q 2938 2591 2744 2837 
Q 2550 3084 2163 3084 
Q 1697 3084 1428 2787 
Q 1159 2491 1159 1978 
L 1159 0 
L 581 0 
L 581 4863 
L 1159 4863 
L 1159 2956 
Q 1366 3272 1645 3428 
Q 1925 3584 2291 3584 
Q 2894 3584 3203 3211 
Q 3513 2838 3513 2113 
z
" transform="scale(0.015625)"/>
       <path id="DejaVuSans-5d" d="M 1947 4863 
L 1947 -844 
L 622 -844 
L 622 -397 
L 1369 -397 
L 1369 4416 
L 622 4416 
L 622 4863 
L 1947 4863 
z
" transform="scale(0.015625)"/>
      </defs>
      <use xlink:href="#DejaVuSans-54"/>
      <use xlink:href="#DejaVuSans-69" x="57.958984"/>
      <use xlink:href="#DejaVuSans-6d" x="85.742188"/>
      <use xlink:href="#DejaVuSans-65" x="183.154297"/>
      <use xlink:href="#DejaVuSans-20" x="244.677734"/>
      <use xlink:href="#DejaVuSans-53" x="276.464844"/>
      <use xlink:href="#DejaVuSans-74" x="339.941406"/>
      <use xlink:href="#DejaVuSans-65" x="379.150391"/>
      <use xlink:href="#DejaVuSans-70" x="440.673828"/>
      <use xlink:href="#DejaVuSans-20" x="504.150391"/>
      <use xlink:href="#DejaVuSans-5b" x="535.9375"/>
      <use xlink:href="#DejaVuSans-68" x="574.951172"/>
      <use xlink:href="#DejaVuSans-5d" x="638.330078"/>
     </g>
    </g>
   </g>
   <g id="matplotlib.axis_2">
    <g id="ytick_1">
     <g id="line2d_21">
      <path d="M 81.65 367.412727 
L 709.2 367.412727 
" clip-path="url(#p08101ed7b1)" style="fill: none; stroke-dasharray: 1.85,0.8; stroke-dashoffset: 0; stroke: #b0b0b0; stroke-width: 0.5"/>
     </g>
     <g id="line2d_22">
      <defs>
       <path id="m63c62dba55" d="M 0 0 
L -3.5 0 
" style="stroke: #000000; stroke-width: 0.8"/>
      </defs>
      <g>
       <use xlink:href="#m63c62dba55" x="81.65" y="367.412727" style="stroke: #000000; stroke-width: 0.8"/>
      </g>
     </g>
     <g id="text_12">
      <!-- 0 -->
      <g transform="translate(67.015 371.97179) scale(0.12 -0.12)">
       <use xlink:href="#DejaVuSans-30"/>
      </g>
     </g>
    </g>
    <g id="ytick_2">
     <g id="line2d_23">
      <path d="M 81.65 300.062595 
L 709.2 300.062595 
" clip-path="url(#p08101ed7b1)" style="fill: none; stroke-dasharray: 1.85,0.8; stroke-dashoffset: 0; stroke: #b0b0b0; stroke-width: 0.5"/>
     </g>
     <g id="line2d_24">
      <g>
       <use xlink:href="#m63c62dba55" x="81.65" y="300.062595" style="stroke: #000000; stroke-width: 0.8"/>
      </g>
     </g>
     <g id="text_13">
      <!-- 50000 -->
      <g transform="translate(36.475 304.621658) scale(0.12 -0.12)">
       <use xlink:href="#DejaVuSans-35"/>
       <use xlink:href="#DejaVuSans-30" x="63.623047"/>
       <use xlink:href="#DejaVuSans-30" x="127.246094"/>
       <use xlink:href="#DejaVuSans-30" x="190.869141"/>
       <use xlink:href="#DejaVuSans-30" x="254.492188"/>
      </g>
     </g>
    </g>
    <g id="ytick_3">
     <g id="line2d_25">
      <path d="M 81.65 232.712464 
L 709.2 232.712464 
" clip-path="url(#p08101ed7b1)" style="fill: none; stroke-dasharray: 1.85,0.8; stroke-dashoffset: 0; stroke: #b0b0b0; stroke-width: 0.5"/>
     </g>
     <g id="line2d_26">
      <g>
       <use xlink:href="#m63c62dba55" x="81.65" y="232.712464" style="stroke: #000000; stroke-width: 0.8"/>
      </g>
     </g>
     <g id="text_14">
      <!-- 100000 -->
      <g transform="translate(28.84 237.271526) scale(0.12 -0.12)">
       <use xlink:href="#DejaVuSans-31"/>
       <use xlink:href="#DejaVuSans-30" x="63.623047"/>
       <use xlink:href="#DejaVuSans-30" x="127.246094"/>
       <use xlink:href="#DejaVuSans-30" x="190.869141"/>
       <use xlink:href="#DejaVuSans-30" x="254.492188"/>
       <use xlink:href="#DejaVuSans-30" x="318.115234"/>
      </g>
     </g>
    </g>
    <g id="ytick_4">
     <g id="line2d_27">
      <path d="M 81.65 165.362332 
L 709.2 165.362332 
" clip-path="url(#p08101ed7b1)" style="fill: none; stroke-dasharray: 1.85,0.8; stroke-dashoffset: 0; stroke: #b0b0b0; stroke-width: 0.5"/>
     </g>
     <g id="line2d_28">
      <g>
       <use xlink:href="#m63c62dba55" x="81.65" y="165.362332" style="stroke: #000000; stroke-width: 0.8"/>
      </g>
     </g>
     <g id="text_15">
      <!-- 150000 -->
      <g transform="translate(28.84 169.921394) scale(0.12 -0.12)">
       <use xlink:href="#DejaVuSans-31"/>
       <use xlink:href="#DejaVuSans-35" x="63.623047"/>
       <use xlink:href="#DejaVuSans-30" x="127.246094"/>
       <use xlink:href="#DejaVuSans-30" x="190.869141"/>
       <use xlink:href="#DejaVuSans-30" x="254.492188"/>
       <use xlink:href="#DejaVuSans-30" x="318.115234"/>
      </g>
     </g>
    </g>
    <g id="ytick_5">
     <g id="line2d_29">
      <path d="M 81.65 98.0122 
L 709.2 98.0122 
" clip-path="url(#p08101ed7b1)" style="fill: none; stroke-dasharray: 1.85,0.8; stroke-dashoffset: 0; stroke: #b0b0b0; stroke-width: 0.5"/>
     </g>
     <g id="line2d_30">
      <g>
       <use xlink:href="#m63c62dba55" x="81.65" y="98.0122" style="stroke: #000000; stroke-width: 0.8"/>
      </g>
     </g>
     <g id="text_16">
      <!-- 200000 -->
      <g transform="translate(28.84 102.571262) scale(0.12 -0.12)">
       <use xlink:href="#DejaVuSans-32"/>
       <use xlink:href="#DejaVuSans-30" x="63.623047"/>
       <use xlink:href="#DejaVuSans-30" x="127.246094"/>
       <use xlink:href="#DejaVuSans-30" x="190.869141"/>
       <use xlink:href="#DejaVuSans-30" x="254.492188"/>
       <use xlink:href="#DejaVuSans-30" x="318.115234"/>
      </g>
     </g>
    </g>
    <g id="ytick_6">
     <g id="line2d_31">
      <path d="M 81.65 30.662068 
L 709.2 30.662068 
" clip-path="url(#p08101ed7b1)" style="fill: none; stroke-dasharray: 1.85,0.8; stroke-dashoffset: 0; stroke: #b0b0b0; stroke-width: 0.5"/>
     </g>
     <g id="line2d_32">
      <g>
       <use xlink:href="#m63c62dba55" x="81.65" y="30.662068" style="stroke: #000000; stroke-width: 0.8"/>
      </g>
     </g>
     <g id="text_17">
      <!-- 250000 -->
      <g transform="translate(28.84 35.22113) scale(0.12 -0.12)">
       <use xlink:href="#DejaVuSans-32"/>
       <use xlink:href="#DejaVuSans-35" x="63.623047"/>
       <use xlink:href="#DejaVuSans-30" x="127.246094"/>
       <use xlink:href="#DejaVuSans-30" x="190.869141"/>
       <use xlink:href="#DejaVuSans-30" x="254.492188"/>
       <use xlink:href="#DejaVuSans-30" x="318.115234"/>
      </g>
     </g>
    </g>
    <g id="text_18">
     <!-- storage_level_battery [kWh] -->
     <g transform="translate(21.539063 304.827031) rotate(-90) scale(0.14 -0.14)">
      <defs>
       <path id="DejaVuSans-73" d="M 2834 3397 
L 2834 2853 
Q 2591 2978 2328 3040 
Q 2066 3103 1784 3103 
Q 1356 3103 1142 2972 
Q 928 2841 928 2578 
Q 928 2378 1081 2264 
Q 1234 2150 1697 2047 
L 1894 2003 
Q 2506 1872 2764 1633 
Q 3022 1394 3022 966 
Q 3022 478 2636 193 
Q 2250 -91 1575 -91 
Q 1294 -91 989 -36 
Q 684 19 347 128 
L 347 722 
Q 666 556 975 473 
Q 1284 391 1588 391 
Q 1994 391 2212 530 
Q 2431 669 2431 922 
Q 2431 1156 2273 1281 
Q 2116 1406 1581 1522 
L 1381 1569 
Q 847 1681 609 1914 
Q 372 2147 372 2553 
Q 372 3047 722 3315 
Q 1072 3584 1716 3584 
Q 2034 3584 2315 3537 
Q 2597 3491 2834 3397 
z
" transform="scale(0.015625)"/>
       <path id="DejaVuSans-6f" d="M 1959 3097 
Q 1497 3097 1228 2736 
Q 959 2375 959 1747 
Q 959 1119 1226 758 
Q 1494 397 1959 397 
Q 2419 397 2687 759 
Q 2956 1122 2956 1747 
Q 2956 2369 2687 2733 
Q 2419 3097 1959 3097 
z
M 1959 3584 
Q 2709 3584 3137 3096 
Q 3566 2609 3566 1747 
Q 3566 888 3137 398 
Q 2709 -91 1959 -91 
Q 1206 -91 779 398 
Q 353 888 353 1747 
Q 353 2609 779 3096 
Q 1206 3584 1959 3584 
z
" transform="scale(0.015625)"/>
       <path id="DejaVuSans-72" d="M 2631 2963 
Q 2534 3019 2420 3045 
Q 2306 3072 2169 3072 
Q 1681 3072 1420 2755 
Q 1159 2438 1159 1844 
L 1159 0 
L 581 0 
L 581 3500 
L 1159 3500 
L 1159 2956 
Q 1341 3275 1631 3429 
Q 1922 3584 2338 3584 
Q 2397 3584 2469 3576 
Q 2541 3569 2628 3553 
L 2631 2963 
z
" transform="scale(0.015625)"/>
       <path id="DejaVuSans-61" d="M 2194 1759 
Q 1497 1759 1228 1600 
Q 959 1441 959 1056 
Q 959 750 1161 570 
Q 1363 391 1709 391 
Q 2188 391 2477 730 
Q 2766 1069 2766 1631 
L 2766 1759 
L 2194 1759 
z
M 3341 1997 
L 3341 0 
L 2766 0 
L 2766 531 
Q 2569 213 2275 61 
Q 1981 -91 1556 -91 
Q 1019 -91 701 211 
Q 384 513 384 1019 
Q 384 1609 779 1909 
Q 1175 2209 1959 2209 
L 2766 2209 
L 2766 2266 
Q 2766 2663 2505 2880 
Q 2244 3097 1772 3097 
Q 1472 3097 1187 3025 
Q 903 2953 641 2809 
L 641 3341 
Q 956 3463 1253 3523 
Q 1550 3584 1831 3584 
Q 2591 3584 2966 3190 
Q 3341 2797 3341 1997 
z
" transform="scale(0.015625)"/>
       <path id="DejaVuSans-67" d="M 2906 1791 
Q 2906 2416 2648 2759 
Q 2391 3103 1925 3103 
Q 1463 3103 1205 2759 
Q 947 2416 947 1791 
Q 947 1169 1205 825 
Q 1463 481 1925 481 
Q 2391 481 2648 825 
Q 2906 1169 2906 1791 
z
M 3481 434 
Q 3481 -459 3084 -895 
Q 2688 -1331 1869 -1331 
Q 1566 -1331 1297 -1286 
Q 1028 -1241 775 -1147 
L 775 -588 
Q 1028 -725 1275 -790 
Q 1522 -856 1778 -856 
Q 2344 -856 2625 -561 
Q 2906 -266 2906 331 
L 2906 616 
Q 2728 306 2450 153 
Q 2172 0 1784 0 
Q 1141 0 747 490 
Q 353 981 353 1791 
Q 353 2603 747 3093 
Q 1141 3584 1784 3584 
Q 2172 3584 2450 3431 
Q 2728 3278 2906 2969 
L 2906 3500 
L 3481 3500 
L 3481 434 
z
" transform="scale(0.015625)"/>
       <path id="DejaVuSans-5f" d="M 3263 -1063 
L 3263 -1509 
L -63 -1509 
L -63 -1063 
L 3263 -1063 
z
" transform="scale(0.015625)"/>
       <path id="DejaVuSans-6c" d="M 603 4863 
L 1178 4863 
L 1178 0 
L 603 0 
L 603 4863 
z
" transform="scale(0.015625)"/>
       <path id="DejaVuSans-76" d="M 191 3500 
L 800 3500 
L 1894 563 
L 2988 3500 
L 3597 3500 
L 2284 0 
L 1503 0 
L 191 3500 
z
" transform="scale(0.015625)"/>
       <path id="DejaVuSans-62" d="M 3116 1747 
Q 3116 2381 2855 2742 
Q 2594 3103 2138 3103 
Q 1681 3103 1420 2742 
Q 1159 2381 1159 1747 
Q 1159 1113 1420 752 
Q 1681 391 2138 391 
Q 2594 391 2855 752 
Q 3116 1113 3116 1747 
z
M 1159 2969 
Q 1341 3281 1617 3432 
Q 1894 3584 2278 3584 
Q 2916 3584 3314 3078 
Q 3713 2572 3713 1747 
Q 3713 922 3314 415 
Q 2916 -91 2278 -91 
Q 1894 -91 1617 61 
Q 1341 213 1159 525 
L 1159 0 
L 581 0 
L 581 4863 
L 1159 4863 
L 1159 2969 
z
" transform="scale(0.015625)"/>
       <path id="DejaVuSans-79" d="M 2059 -325 
Q 1816 -950 1584 -1140 
Q 1353 -1331 966 -1331 
L 506 -1331 
L 506 -850 
L 844 -850 
Q 1081 -850 1212 -737 
Q 1344 -625 1503 -206 
L 1606 56 
L 191 3500 
L 800 3500 
L 1894 763 
L 2988 3500 
L 3597 3500 
L 2059 -325 
z
" transform="scale(0.015625)"/>
       <path id="DejaVuSans-6b" d="M 581 4863 
L 1159 4863 
L 1159 1991 
L 2875 3500 
L 3609 3500 
L 1753 1863 
L 3688 0 
L 2938 0 
L 1159 1709 
L 1159 0 
L 581 0 
L 581 4863 
z
" transform="scale(0.015625)"/>
       <path id="DejaVuSans-57" d="M 213 4666 
L 850 4666 
L 1831 722 
L 2809 4666 
L 3519 4666 
L 4500 722 
L 5478 4666 
L 6119 4666 
L 4947 0 
L 4153 0 
L 3169 4050 
L 2175 0 
L 1381 0 
L 213 4666 
z
" transform="scale(0.015625)"/>
      </defs>
      <use xlink:href="#DejaVuSans-73"/>
      <use xlink:href="#DejaVuSans-74" x="52.099609"/>
      <use xlink:href="#DejaVuSans-6f" x="91.308594"/>
      <use xlink:href="#DejaVuSans-72" x="152.490234"/>
      <use xlink:href="#DejaVuSans-61" x="193.603516"/>
      <use xlink:href="#DejaVuSans-67" x="254.882812"/>
      <use xlink:href="#DejaVuSans-65" x="318.359375"/>
      <use xlink:href="#DejaVuSans-5f" x="379.882812"/>
      <use xlink:href="#DejaVuSans-6c" x="429.882812"/>
      <use xlink:href="#DejaVuSans-65" x="457.666016"/>
      <use xlink:href="#DejaVuSans-76" x="519.189453"/>
      <use xlink:href="#DejaVuSans-65" x="578.369141"/>
      <use xlink:href="#DejaVuSans-6c" x="639.892578"/>
      <use xlink:href="#DejaVuSans-5f" x="667.675781"/>
      <use xlink:href="#DejaVuSans-62" x="717.675781"/>
      <use xlink:href="#DejaVuSans-61" x="781.152344"/>
      <use xlink:href="#DejaVuSans-74" x="842.431641"/>
      <use xlink:href="#DejaVuSans-74" x="881.640625"/>
      <use xlink:href="#DejaVuSans-65" x="920.849609"/>
      <use xlink:href="#DejaVuSans-72" x="982.373047"/>
      <use xlink:href="#DejaVuSans-79" x="1023.486328"/>
      <use xlink:href="#DejaVuSans-20" x="1082.666016"/>
      <use xlink:href="#DejaVuSans-5b" x="1114.453125"/>
      <use xlink:href="#DejaVuSans-6b" x="1153.466797"/>
      <use xlink:href="#DejaVuSans-57" x="1211.376953"/>
      <use xlink:href="#DejaVuSans-68" x="1310.253906"/>
      <use xlink:href="#DejaVuSans-5d" x="1373.632812"/>
     </g>
    </g>
   </g>
   <g id="line2d_33">
    <path d="M 81.65 86.676761 
L 82.724572 53.403862 
L 82.79621 53.892662 
L 83.154401 55.484875 
L 83.512591 57.715647 
L 85.733373 71.8124 
L 86.736307 77.723257 
L 87.02286 79.579976 
L 87.237774 72.924614 
L 87.309412 73.391683 
L 88.383984 79.68201 
L 88.455622 80.077521 
L 88.957089 64.5495 
L 89.028727 65.010596 
L 89.960023 70.471461 
L 90.174937 71.241192 
L 91.6077 79.833306 
L 91.750976 79.956395 
L 91.894252 80.430833 
L 93.1121 88.299246 
L 93.685205 91.886793 
L 94.186672 76.355301 
L 94.258311 76.367525 
L 98.843151 106.357317 
L 99.272979 93.040683 
L 99.344618 93.486176 
L 100.204275 98.228288 
L 100.634104 99.866028 
L 100.920656 90.98899 
L 100.992295 91.426662 
L 102.425057 99.948546 
L 102.639971 93.290617 
L 102.71161 93.738735 
L 105.00403 108.572832 
L 107.009897 46.454637 
L 107.081535 46.604314 
L 107.153174 46.684439 
L 107.224812 44.467273 
L 107.29645 44.480836 
L 108.80085 54.111655 
L 108.872489 54.106349 
L 109.087403 54.719227 
L 112.096204 73.382728 
L 112.239481 73.528438 
L 112.454395 73.512519 
L 112.597671 74.095779 
L 113.958796 82.241226 
L 114.17371 82.471985 
L 114.316986 83.197258 
L 115.678111 92.122042 
L 115.893025 92.52705 
L 116.179578 94.294261 
L 117.397426 102.810106 
L 117.970531 107.078413 
L 124.274686 146.720238 
L 124.4896 147.172185 
L 124.919429 149.735131 
L 129.289355 178.461825 
L 130.363927 185.471847 
L 131.151946 190.060191 
L 131.366861 190.20783 
L 131.510137 190.857146 
L 131.581775 191.360902 
L 131.868328 182.468494 
L 131.939966 182.918137 
L 136.238253 209.06325 
L 136.954635 213.020639 
L 138.244121 220.217403 
L 138.530674 222.045146 
L 141.396199 240.735918 
L 141.539475 240.804702 
L 141.611113 240.737613 
L 141.754389 241.207294 
L 142.11258 242.772165 
L 142.470771 244.028094 
L 142.685685 244.872879 
L 143.115514 246.411123 
L 144.046809 249.6519 
L 146.482506 256.914675 
L 146.69742 257.201484 
L 151.497175 269.447727 
L 151.783727 270.377013 
L 151.927003 270.42699 
L 152.141918 270.755138 
L 155.007443 279.279793 
L 155.222357 279.459681 
L 155.365634 279.281998 
L 155.437272 279.39119 
L 155.50891 279.384823 
L 155.723824 279.914509 
L 156.798396 282.952433 
L 157.371501 284.86096 
L 158.517711 287.722091 
L 158.94754 288.151909 
L 160.666855 291.932831 
L 160.881769 292.39309 
L 162.027979 295.576705 
L 162.672723 297.38318 
L 165.394971 304.452718 
L 165.538248 304.471466 
L 165.753162 304.111335 
L 165.968076 304.365797 
L 167.615753 308.555884 
L 168.475411 310.855695 
L 168.976878 312.450268 
L 169.048516 312.257924 
L 169.191792 312.065327 
L 169.621621 312.924515 
L 170.624555 315.357033 
L 170.767831 315.338743 
L 170.982745 315.759494 
L 171.054384 315.796986 
L 171.914041 318.051581 
L 172.272232 318.793103 
L 172.415508 318.88482 
L 172.487146 318.666601 
L 173.131889 320.176939 
L 175.7825 326.878658 
L 175.997414 326.832154 
L 176.642158 328.343596 
L 177.860006 331.874316 
L 178.504749 333.725659 
L 180.725531 339.844103 
L 180.940445 340.240304 
L 181.012083 340.223511 
L 181.298636 340.666802 
L 181.728465 341.67602 
L 182.588122 343.503753 
L 182.731398 343.014119 
L 183.017951 341.824484 
L 183.232865 342.187163 
L 184.379075 344.872383 
L 184.522352 344.893269 
L 184.59399 344.983393 
L 184.737266 344.785507 
L 185.310371 346.155768 
L 186.241667 348.18673 
L 186.456581 348.209638 
L 187.960982 351.607421 
L 188.175896 351.063534 
L 188.534087 351.860956 
L 189.465382 354.186355 
L 189.608659 353.837853 
L 189.895211 352.760583 
L 190.110126 353.118389 
L 191.184697 355.751432 
L 191.256336 355.705847 
L 191.614526 354.553563 
L 191.686164 354.657134 
L 191.829441 354.947095 
L 192.832374 357.635287 
L 193.047289 358.103695 
L 193.118927 358.063624 
L 193.190565 357.872586 
L 193.262203 357.944774 
L 194.551689 360.850565 
L 194.623328 360.844474 
L 194.766604 360.271818 
L 194.981518 359.445026 
L 195.124795 359.252842 
L 195.196433 359.251012 
L 196.271005 361.850217 
L 196.342643 361.794727 
L 196.557557 360.688653 
L 196.772471 359.650942 
L 196.915748 359.625503 
L 197.99032 362.147432 
L 198.061958 362.072027 
L 198.276872 360.906506 
L 198.491787 359.861554 
L 198.635063 359.85006 
L 199.781273 362.56865 
L 199.852911 362.482399 
L 200.211102 361.410395 
L 200.426016 361.790765 
L 201.357312 364.480782 
L 201.500588 364.738426 
L 201.572226 364.689298 
L 201.858779 363.757444 
L 201.930417 363.897508 
L 203.219903 367.1926 
L 203.291541 367.025629 
L 203.649732 365.490827 
L 203.72137 365.540437 
L 203.793008 365.558933 
L 203.936284 365.98211 
L 204.151199 359.290662 
L 204.222837 359.497446 
L 204.581027 360.527722 
L 205.010856 349.188314 
L 205.440685 347.561515 
L 205.870514 334.184104 
L 205.942152 334.389307 
L 206.586895 336.108859 
L 206.658533 336.013401 
L 206.873447 334.809109 
L 207.088362 333.716536 
L 207.16 333.697291 
L 207.804743 335.561834 
L 208.30621 336.841562 
L 208.377848 336.743657 
L 208.592763 335.524214 
L 208.807677 334.445495 
L 208.879315 334.43471 
L 209.595696 336.504523 
L 210.025525 337.52237 
L 210.097163 337.506162 
L 210.240439 337.004238 
L 210.526992 336.041747 
L 211.315011 338.327042 
L 211.816478 339.581192 
L 212.031393 339.514246 
L 212.174669 339.240195 
L 213.392517 342.749598 
L 213.535793 342.92082 
L 213.67907 342.428025 
L 213.893984 341.698949 
L 214.03726 341.845375 
L 215.398385 345.398985 
L 215.470023 345.370681 
L 215.541661 345.489265 
L 215.684937 345.060276 
L 215.97149 345.89747 
L 217.260976 351.681643 
L 217.547529 352.540595 
L 218.6221 357.171015 
L 218.693739 357.262552 
L 218.765377 357.174482 
L 218.908653 357.022875 
L 219.481758 358.577151 
L 220.126501 361.419257 
L 220.198139 359.188872 
L 220.269777 359.494589 
L 220.627968 360.525659 
L 221.057797 361.464546 
L 222.060731 365.561295 
L 222.132369 365.553213 
L 222.347283 364.612351 
L 222.562197 363.82165 
L 222.705474 363.907142 
L 223.206941 366.079291 
L 223.493493 367.354109 
L 223.780046 358.432135 
L 223.851684 358.46472 
L 223.99496 357.981632 
L 224.281513 356.795436 
L 224.353151 356.865991 
L 225.570999 318.965439 
L 225.642637 319.451047 
L 226.000828 321.165903 
L 226.144104 321.618551 
L 227.290314 330.004374 
L 227.361952 329.849994 
L 227.648505 328.837921 
L 227.935057 330.430234 
L 228.866353 337.68525 
L 229.009629 337.687104 
L 229.152905 337.146514 
L 229.439458 335.882334 
L 229.582734 335.97366 
L 230.084201 338.222717 
L 230.657306 340.548862 
L 230.728944 340.454522 
L 230.943858 339.281882 
L 231.158773 338.256292 
L 231.302049 338.27007 
L 231.875154 340.715493 
L 232.376621 342.628087 
L 232.448259 342.533203 
L 232.663174 341.32748 
L 232.878088 340.237048 
L 233.021364 340.24632 
L 233.451193 342.096937 
L 233.881022 344.014689 
L 234.024298 339.555475 
L 234.095936 339.783328 
L 234.167574 339.75145 
L 234.31085 339.182737 
L 234.597403 338.10838 
L 234.740679 338.190801 
L 235.170508 340.088058 
L 235.815251 342.778004 
L 235.886889 342.811188 
L 236.101804 341.951376 
L 236.316718 341.193609 
L 236.459994 341.286685 
L 236.961461 343.502325 
L 237.677842 346.372204 
L 237.749481 346.302354 
L 238.036033 345.168725 
L 238.107671 345.232758 
L 238.179309 345.300313 
L 238.824053 348.161703 
L 239.038967 349.121632 
L 239.182243 344.661989 
L 239.253881 344.842562 
L 239.325519 344.773443 
L 239.755348 343.032923 
L 239.826986 343.193373 
L 239.970263 343.57482 
L 241.044834 347.907893 
L 241.188111 347.641383 
L 241.331387 347.301302 
L 241.546301 347.390269 
L 241.761216 348.15094 
L 242.692511 351.875829 
L 242.76415 351.825445 
L 243.193978 349.34324 
L 243.265616 349.459018 
L 243.337255 349.477005 
L 243.767083 350.621806 
L 244.555103 352.524982 
L 245.271484 353.797185 
L 246.20278 356.655302 
L 246.56097 357.708102 
L 247.420628 359.863623 
L 247.922095 360.915517 
L 248.065371 361.09652 
L 248.208647 361.038453 
L 248.280285 360.755351 
L 248.4952 361.017881 
L 248.710114 361.509406 
L 249.569772 363.693342 
L 249.713048 363.276541 
L 249.9996 362.4327 
L 250.214515 362.896005 
L 250.715982 364.761538 
L 251.289087 366.532735 
L 251.432363 366.569246 
L 251.575639 366.31513 
L 251.790554 365.348888 
L 252.578573 367.412727 
L 253.008402 354.030314 
L 253.08004 354.175016 
L 253.366592 355.916082 
L 253.868059 340.306975 
L 253.939697 340.759652 
L 254.297888 343.023631 
L 254.727717 329.647363 
L 254.799355 330.027918 
L 255.802289 335.579082 
L 256.447032 339.249861 
L 256.661946 339.269251 
L 256.805223 339.039032 
L 256.876861 338.683243 
L 256.948499 338.78108 
L 257.020137 338.755021 
L 257.378328 340.74818 
L 258.166347 345.109057 
L 258.381261 344.214436 
L 258.596176 343.467235 
L 258.739452 343.644935 
L 259.097643 345.778799 
L 259.885662 350.574228 
L 259.9573 350.524103 
L 260.387129 348.781316 
L 260.458767 348.871712 
L 260.673682 349.999461 
L 261.533339 355.739433 
L 261.604977 355.720222 
L 262.034806 354.356042 
L 262.24972 354.408558 
L 262.679549 357.247021 
L 263.324292 361.081823 
L 263.467568 360.556873 
L 263.897397 357.927729 
L 263.969035 357.96943 
L 264.327226 360.3254 
L 264.971969 364.555043 
L 265.043607 364.489592 
L 265.186884 363.828211 
L 265.545074 361.753038 
L 265.616712 361.717218 
L 265.759989 362.258989 
L 266.189817 364.615411 
L 266.691284 365.917352 
L 266.834561 365.788478 
L 267.121113 364.605809 
L 267.264389 364.717152 
L 267.765856 365.954149 
L 268.195685 367.240477 
L 268.482237 360.446834 
L 269.055342 357.575936 
L 269.198619 358.128294 
L 270.201553 364.033326 
L 270.344829 364.131644 
L 270.488105 364.35996 
L 270.774658 362.640951 
L 270.846296 362.689691 
L 271.06121 363.877437 
L 271.634315 367.311184 
L 271.920868 360.492366 
L 272.20742 358.497634 
L 272.493973 356.523123 
L 272.565611 356.493192 
L 272.852163 358.178795 
L 273.35363 361.438502 
L 273.496906 356.977825 
L 273.568545 357.077257 
L 273.711821 356.491493 
L 274.284926 352.494324 
L 274.428202 353.174392 
L 275.072945 357.443199 
L 275.216221 352.982857 
L 275.28786 353.097864 
L 275.431136 352.526667 
L 276.004241 348.73748 
L 276.219155 349.930067 
L 277.007175 354.374624 
L 277.150451 353.705026 
L 277.651918 350.03958 
L 277.723556 350.078275 
L 278.010108 351.773206 
L 278.72649 355.85689 
L 278.869766 355.174138 
L 279.442871 351.061474 
L 279.657785 352.209997 
L 280.445805 356.787174 
L 280.589081 356.05272 
L 281.090548 352.610782 
L 281.233824 353.128724 
L 282.16512 358.717161 
L 282.308396 358.554205 
L 282.451672 358.875121 
L 282.738225 357.413627 
L 282.809863 357.479452 
L 282.953139 357.823471 
L 283.884435 363.315707 
L 284.099349 362.802432 
L 284.45754 360.801345 
L 284.600816 360.826121 
L 284.815731 362.049385 
L 285.60375 366.788878 
L 285.747026 366.236173 
L 286.248493 362.930372 
L 286.320131 362.97365 
L 286.463408 363.616264 
L 286.964874 366.87174 
L 287.394703 353.489464 
L 287.466341 353.708336 
L 287.537979 353.690457 
L 287.681256 352.872761 
L 287.89617 351.674818 
L 288.325999 353.55638 
L 289.400571 360.170292 
L 289.687123 359.693342 
L 289.902038 360.685388 
L 290.761695 365.690136 
L 290.904971 364.978592 
L 291.406438 361.258563 
L 291.478076 361.207896 
L 291.621353 361.842618 
L 292.12282 364.588225 
L 292.409372 365.179473 
L 292.48101 365.185098 
L 292.624287 364.437515 
L 293.197392 359.918405 
L 293.842135 361.78887 
L 294.271963 362.719389 
L 294.41524 362.557623 
L 294.558516 362.29548 
L 295.059983 363.227401 
L 296.062917 365.944704 
L 296.421107 363.478779 
L 296.564384 363.722224 
L 296.70766 363.926803 
L 297.710594 366.638885 
L 297.925508 366.420478 
L 298.140422 365.455494 
L 298.283699 365.592214 
L 298.570251 366.15368 
L 299.00008 367.412727 
L 299.358271 357.188766 
L 299.429909 357.238414 
L 299.716461 355.251874 
L 300.003014 353.773558 
L 300.074652 353.72906 
L 300.217928 354.385628 
L 301.077586 359.568856 
L 301.220862 358.990528 
L 301.793967 354.742092 
L 301.937243 355.356821 
L 302.725263 360.299011 
L 302.868539 360.333086 
L 303.155091 357.906168 
L 303.513282 355.344554 
L 303.656558 356.000197 
L 304.516216 360.906442 
L 304.73113 360.119878 
L 304.946045 358.284069 
L 305.017683 358.380028 
L 305.160959 358.506308 
L 305.232597 358.451375 
L 305.447511 359.572148 
L 306.235531 364.117508 
L 306.378807 363.490161 
L 306.880274 359.698222 
L 306.951912 359.596496 
L 307.095188 360.219382 
L 307.954846 365.503014 
L 308.026484 365.443933 
L 308.313037 363.945173 
L 308.527951 362.559259 
L 308.599589 362.511192 
L 309.029418 365.03614 
L 309.459247 367.412727 
L 309.674161 360.721099 
L 309.745799 361.007103 
L 309.889075 361.126284 
L 310.390542 361.101864 
L 310.533818 361.619783 
L 311.035285 364.936451 
L 311.465114 353.785299 
L 312.109857 353.809412 
L 312.253134 354.607732 
L 313.112791 361.041885 
L 313.327705 361.112532 
L 313.470982 361.113062 
L 313.757534 360.265425 
L 313.829172 360.345233 
L 314.115725 362.48106 
L 314.760468 367.412727 
L 314.903744 365.182185 
L 315.047021 365.182372 
L 315.476849 361.60415 
L 315.548487 361.463406 
L 315.620126 361.599438 
L 316.193231 365.265504 
L 316.408145 366.205689 
L 316.623059 361.5236 
L 316.837974 360.090115 
L 317.124526 358.273374 
L 317.267803 358.139798 
L 317.482717 359.143291 
L 318.270736 363.646996 
L 318.342374 363.747178 
L 318.485651 363.197852 
L 318.915479 360.797434 
L 319.058756 361.108083 
L 319.631861 365.619108 
L 319.918413 367.255176 
L 319.990051 367.264436 
L 320.133328 366.715437 
L 320.706433 363.251261 
L 320.849709 363.925435 
L 321.279538 367.412727 
L 321.852643 351.800896 
L 322.425748 351.659199 
L 322.569024 352.128046 
L 322.927215 354.45132 
L 323.643596 334.376925 
L 323.85851 333.216132 
L 323.930148 333.158605 
L 324.073425 333.567447 
L 324.145063 333.501273 
L 324.216701 333.58557 
L 324.574892 335.806279 
L 325.291273 340.070504 
L 325.362911 340.102923 
L 325.577825 339.307773 
L 325.79274 338.192735 
L 325.864378 338.21668 
L 326.079292 339.288582 
L 326.724035 343.310585 
L 327.010588 336.487568 
L 327.512055 332.481926 
L 327.583693 332.408111 
L 327.726969 332.946919 
L 328.586627 337.640051 
L 328.801541 336.322189 
L 329.016455 334.759937 
L 329.159732 335.315392 
L 329.23137 335.077591 
L 329.303008 335.217092 
L 329.374646 335.340657 
L 330.019389 339.271322 
L 330.234304 340.514902 
L 330.37758 338.283275 
L 330.449218 338.232274 
L 330.592494 337.596986 
L 331.810342 345.036108 
L 332.025257 338.3473 
L 332.096895 338.528161 
L 332.168533 338.505813 
L 332.455086 337.001481 
L 332.67 335.779474 
L 332.741638 335.827497 
L 332.956553 336.844687 
L 333.386381 339.127366 
L 333.959486 324.666028 
L 334.460953 321.266578 
L 334.532591 321.299614 
L 334.890782 323.401693 
L 334.96242 323.852445 
L 335.678801 303.296735 
L 335.822078 302.686066 
L 335.893716 303.086091 
L 335.965354 302.870367 
L 336.10863 302.744316 
L 336.251906 303.430451 
L 336.681735 306.111807 
L 337.398116 285.584874 
L 337.756307 284.063533 
L 337.827945 284.296318 
L 337.899583 284.150733 
L 338.04286 284.553891 
L 338.830879 289.140221 
L 338.974155 288.557969 
L 339.54726 284.221024 
L 339.762175 285.221335 
L 340.33528 288.888957 
L 340.621832 279.980165 
L 340.69347 280.004663 
L 340.765108 279.76282 
L 341.266575 276.194025 
L 341.338213 276.158223 
L 341.553128 277.261433 
L 342.126233 280.943908 
L 342.341147 274.263175 
L 342.412785 274.687 
L 342.484424 274.828049 
L 343.057529 270.910289 
L 343.129167 270.929856 
L 343.344081 272.148774 
L 343.988824 276.014313 
L 344.060462 276.070907 
L 344.1321 275.957125 
L 344.633567 273.942228 
L 344.776844 274.2731 
L 344.991758 275.249141 
L 345.421587 278.236044 
L 345.851416 264.876101 
L 345.923054 265.166411 
L 346.137968 264.958594 
L 346.281244 264.47263 
L 346.424521 264.522871 
L 346.782711 266.586929 
L 347.069264 268.661137 
L 347.642369 253.000153 
L 347.928921 251.864103 
L 348.143836 250.719301 
L 348.215474 250.625952 
L 348.35875 251.311167 
L 349.218408 257.354727 
L 349.290046 257.413668 
L 349.433322 256.767212 
L 349.50496 256.192637 
L 349.576598 256.376277 
L 349.863151 255.261857 
L 350.006427 255.725422 
L 350.866084 260.285832 
L 350.937723 260.163822 
L 351.224275 258.329493 
L 351.367551 257.537756 
L 351.510828 257.071 
L 351.654104 256.649257 
L 351.79738 257.084059 
L 352.5854 261.349972 
L 352.657038 261.203214 
L 352.871952 259.490027 
L 353.373419 255.428854 
L 353.445057 255.463537 
L 353.659971 256.731261 
L 354.304715 260.442616 
L 354.376353 260.387363 
L 355.092734 257.664209 
L 355.23601 258.302419 
L 356.095668 264.031732 
L 356.238944 264.202631 
L 356.525497 262.353978 
L 356.812049 260.908912 
L 357.026963 262.219285 
L 357.456792 265.472106 
L 357.886621 252.115379 
L 357.958259 252.593964 
L 358.531364 255.405573 
L 358.889555 257.892892 
L 359.104469 258.96879 
L 359.677574 243.140079 
L 359.749212 242.965224 
L 360.035765 240.994795 
L 360.250679 241.218052 
L 360.537232 243.098678 
L 361.253613 247.635931 
L 361.396889 247.809571 
L 361.540166 247.240496 
L 361.898356 248.265372 
L 362.184909 250.008479 
L 362.972928 255.126781 
L 363.116204 254.970319 
L 363.617671 256.721786 
L 363.832586 257.573608 
L 364.763881 263.391098 
L 364.835519 263.509956 
L 365.122072 261.409683 
L 365.19371 261.547714 
L 365.265348 261.463874 
L 365.336986 261.488725 
L 365.408624 261.258397 
L 365.551901 261.806325 
L 366.483196 267.611235 
L 366.554834 267.708083 
L 366.698111 267.139518 
L 366.984663 265.323019 
L 367.271216 266.3623 
L 368.202511 271.563827 
L 368.847255 267.375659 
L 368.918893 267.445018 
L 369.133807 268.622659 
L 369.77855 272.088382 
L 369.921826 271.609086 
L 370.638208 266.774589 
L 371.211313 270.24942 
L 371.497865 271.689237 
L 371.641142 271.63046 
L 371.856056 270.484491 
L 371.927694 270.312079 
L 372.357523 268.09286 
L 372.500799 268.720416 
L 373.21718 272.685551 
L 373.288818 272.571343 
L 373.503733 271.02907 
L 374.0052 267.385296 
L 374.076838 267.373015 
L 374.291752 268.598835 
L 374.936495 272.40766 
L 375.079772 271.856093 
L 375.724515 266.609841 
L 375.867791 266.968926 
L 376.655811 271.335979 
L 376.799087 270.723039 
L 377.372192 265.420537 
L 377.44383 265.429717 
L 377.587106 265.773366 
L 378.375126 270.11042 
L 378.446764 270.172507 
L 378.59004 269.691122 
L 379.163145 265.792415 
L 379.234783 265.861706 
L 379.521336 267.589278 
L 380.094441 270.871554 
L 380.166079 270.868478 
L 380.309355 270.280612 
L 380.88246 266.559283 
L 381.025736 267.109494 
L 381.670479 271.019225 
L 381.885394 264.339742 
L 381.957032 264.347749 
L 382.02867 264.295046 
L 382.100308 264.438337 
L 382.243584 263.821019 
L 382.530137 262.354047 
L 382.601775 262.29293 
L 382.745051 262.955515 
L 383.17488 266.196154 
L 383.747985 250.541943 
L 383.819623 250.634486 
L 383.9629 250.013342 
L 384.32109 247.461925 
L 384.392728 247.411661 
L 384.536005 248.065977 
L 385.180748 251.936687 
L 385.252386 251.984023 
L 385.395662 251.639566 
L 385.825491 249.125229 
L 385.897129 248.604798 
L 385.968767 248.732186 
L 386.183682 249.764724 
L 386.971701 254.585055 
L 387.043339 254.444488 
L 387.258253 252.700025 
L 387.688082 249.032049 
L 387.75972 248.898856 
L 387.831358 248.973954 
L 388.046273 250.154452 
L 388.619378 253.602696 
L 388.691016 253.676502 
L 388.834292 253.224846 
L 389.264121 249.681631 
L 389.407397 248.616489 
L 389.622312 249.540001 
L 390.553607 255.605796 
L 390.983436 253.45031 
L 392.129646 260.609746 
L 392.272922 260.843815 
L 392.487837 260.226217 
L 392.702751 259.986313 
L 392.774389 259.619989 
L 392.846027 259.671225 
L 392.917666 259.713618 
L 393.13258 260.993221 
L 393.705685 264.797015 
L 393.992237 255.89227 
L 394.063876 256.252955 
L 394.27879 257.022883 
L 394.565342 257.273757 
L 395.926467 214.99554 
L 395.998105 215.102185 
L 396.069743 214.911235 
L 396.141381 215.01288 
L 396.427934 215.452363 
L 396.499572 213.228109 
L 396.57121 213.234585 
L 396.929401 215.968057 
L 397.574144 199.391444 
L 397.789058 198.6736 
L 398.075611 197.400441 
L 398.218887 197.828832 
L 398.720354 201.041692 
L 399.006906 192.147657 
L 399.078545 192.287019 
L 399.221821 192.597527 
L 399.365097 191.687634 
L 399.580011 190.556975 
L 399.65165 190.535092 
L 399.723288 190.225349 
L 399.794926 190.284062 
L 400.081478 191.969935 
L 400.511307 194.909303 
L 401.012774 182.633032 
L 401.370965 179.789311 
L 402.588813 186.923063 
L 403.018642 184.630945 
L 403.161918 184.059813 
L 403.305194 184.292351 
L 404.164852 189.380476 
L 404.23649 189.317782 
L 404.379766 188.673828 
L 404.952871 184.568919 
L 405.024509 184.556059 
L 405.454338 187.20135 
L 405.812529 189.06888 
L 405.955805 189.075012 
L 406.099081 188.497589 
L 406.672186 184.687494 
L 406.743824 184.662852 
L 406.8871 185.311718 
L 407.603482 189.513395 
L 407.67512 189.430549 
L 407.818396 188.623779 
L 408.391501 184.869776 
L 408.463139 184.962805 
L 408.749692 186.858741 
L 409.322797 190.481489 
L 409.466073 190.353056 
L 409.895902 187.746802 
L 410.039178 186.864823 
L 410.182454 187.415033 
L 411.042112 192.457457 
L 411.11375 192.278872 
L 411.543579 190.548351 
L 411.830131 188.793678 
L 411.973408 189.333493 
L 412.618151 193.16431 
L 412.689789 190.940992 
L 412.761427 191.340086 
L 412.976341 191.852063 
L 413.191256 191.582985 
L 413.334532 191.937548 
L 413.40617 191.88323 
L 413.692723 192.287639 
L 414.480742 196.854312 
L 414.55238 196.835414 
L 414.624018 196.750976 
L 415.197123 192.581079 
L 415.268761 192.641909 
L 415.412038 193.098189 
L 416.271695 198.076703 
L 416.343333 198.053166 
L 416.48661 197.26808 
L 416.773162 196.029069 
L 416.916438 195.729222 
L 416.988076 195.660646 
L 417.202991 196.12876 
L 417.274629 193.905317 
L 417.346267 194.37732 
L 417.561182 195.327617 
L 418.062648 179.765716 
L 418.134287 179.773597 
L 418.277563 179.87319 
L 418.420839 179.547292 
L 418.564115 179.465266 
L 418.635753 179.534264 
L 418.707392 179.811936 
L 419.853602 144.259022 
L 419.92524 144.431953 
L 420.355068 145.952742 
L 420.498345 146.025713 
L 420.856535 148.40143 
L 421.143088 150.419069 
L 421.501279 141.442691 
L 421.716193 139.957989 
L 422.074384 137.446519 
L 422.146022 137.459697 
L 422.360936 138.576096 
L 423.148955 143.546667 
L 423.220594 143.677721 
L 423.292232 143.44846 
L 423.865337 139.433313 
L 423.936975 139.532868 
L 424.438442 142.802571 
L 424.868271 145.184936 
L 424.939909 145.128646 
L 425.154823 143.452777 
L 425.441376 141.541552 
L 425.584652 141.081987 
L 425.727928 141.547925 
L 426.659224 146.436114 
L 426.730862 146.491858 
L 427.160691 143.335543 
L 427.375605 143.235486 
L 427.590519 144.393784 
L 428.306901 148.359298 
L 428.450177 148.211539 
L 428.808368 145.950236 
L 429.023282 144.685107 
L 429.09492 144.709038 
L 429.238196 145.366177 
L 430.026216 149.558282 
L 430.169492 148.944368 
L 430.742597 144.71948 
L 430.814235 144.775173 
L 430.957511 145.054472 
L 432.032083 115.032255 
L 432.461912 112.467965 
L 432.53355 112.552629 
L 432.748465 113.832719 
L 433.464846 118.206739 
L 433.608122 117.640817 
L 434.181227 113.47945 
L 434.252865 113.527652 
L 434.46778 114.788579 
L 435.184161 119.264162 
L 435.255799 119.122074 
L 435.327437 119.413969 
L 435.399075 119.324843 
L 435.900542 119.921644 
L 435.97218 119.951453 
L 436.258733 121.733754 
L 436.831838 125.215017 
L 436.975114 124.879303 
L 437.619857 120.282064 
L 437.763134 120.901965 
L 438.694429 126.687488 
L 438.766067 126.544448 
L 439.339172 123.320015 
L 439.410811 123.449236 
L 439.912277 126.851028 
L 440.413744 129.939387 
L 440.557021 129.332093 
L 440.915211 127.660761 
L 441.058487 127.450256 
L 441.201764 128.151888 
L 442.204697 134.612585 
L 442.634526 132.242884 
L 442.849441 132.712137 
L 443.279269 135.847768 
L 443.995651 115.67598 
L 444.067289 115.690588 
L 444.497118 113.728542 
L 444.640394 114.278722 
L 445.500051 120.256057 
L 445.643328 119.809669 
L 446.216433 116.369955 
L 446.359709 116.878073 
L 447.147728 122.527033 
L 447.219366 122.506322 
L 447.362643 121.795813 
L 447.935748 117.708291 
L 448.007386 117.826117 
L 448.293938 119.813469 
L 448.867043 123.758692 
L 448.938682 123.765156 
L 449.081958 123.056752 
L 449.440148 120.792975 
L 449.511787 120.574022 
L 449.583425 120.686843 
L 449.869977 111.806307 
L 449.941615 112.313504 
L 450.586358 116.330028 
L 450.657997 116.340574 
L 450.729635 116.222689 
L 450.801273 116.32868 
L 451.30274 113.183409 
L 451.374378 113.20584 
L 452.019121 117.278723 
L 452.44895 119.921639 
L 452.592226 119.07759 
L 452.950417 116.559456 
L 453.022055 116.555302 
L 453.165331 117.032479 
L 454.168265 124.107009 
L 454.239903 124.011731 
L 454.311541 123.830459 
L 454.598094 122.021147 
L 454.74137 121.89759 
L 454.884646 122.471938 
L 455.601027 127.159774 
L 455.88758 118.27815 
L 455.959218 118.491891 
L 456.102494 118.491087 
L 456.174132 118.570209 
L 456.245771 118.397835 
L 456.317409 118.732194 
L 456.389047 118.66472 
L 456.460685 118.54844 
L 456.603961 119.222737 
L 456.818876 112.56238 
L 456.890514 113.075574 
L 457.105428 114.608878 
L 457.821809 92.412888 
L 457.893447 92.781307 
L 457.965086 93.021331 
L 459.469486 46.439548 
L 459.541124 46.579099 
L 459.612763 46.625975 
L 459.684401 46.474676 
L 459.899315 47.090843 
L 459.970953 47.022834 
L 460.114229 47.555778 
L 460.902249 52.675749 
L 460.973887 52.69968 
L 461.260439 51.661156 
L 461.546992 50.614454 
L 461.833545 52.165257 
L 462.76484 58.166578 
L 463.051393 56.982676 
L 463.337945 56.030636 
L 463.409583 55.878027 
L 463.624498 57.165749 
L 464.484155 62.934522 
L 464.555793 62.97873 
L 464.627432 62.809268 
L 464.69907 62.930056 
L 464.985622 61.719733 
L 465.05726 61.820818 
L 465.343813 63.465863 
L 465.988556 67.946985 
L 466.131832 63.510961 
L 466.20347 63.779561 
L 466.275108 63.829685 
L 466.418385 63.076525 
L 466.561661 62.391083 
L 466.704937 62.594507 
L 466.776575 62.524999 
L 466.848213 62.597509 
L 467.134766 64.365576 
L 467.492957 66.831651 
L 467.851147 55.742523 
L 467.922785 55.755613 
L 468.066062 55.903681 
L 468.49589 54.812301 
L 468.567529 54.934104 
L 468.925719 57.273561 
L 469.570462 61.618405 
L 469.6421 61.559975 
L 469.785377 61.320362 
L 470.000291 60.552115 
L 470.215205 60.563521 
L 471.433054 67.899676 
L 471.791244 65.45992 
L 471.934521 65.529206 
L 472.077797 66.033119 
L 473.009092 71.50941 
L 473.152369 71.408576 
L 473.725474 68.122166 
L 473.86875 68.684195 
L 474.728408 73.718072 
L 474.943322 73.4917 
L 475.444789 71.028057 
L 475.731341 72.62991 
L 476.519361 76.980381 
L 476.734275 76.116633 
L 477.020828 74.801778 
L 477.164104 74.368491 
L 477.30738 74.937721 
L 477.952123 79.076292 
L 478.0954 74.639333 
L 478.167038 74.800039 
L 478.238676 74.760447 
L 478.381952 74.09208 
L 478.883419 71.116383 
L 479.026695 71.691403 
L 479.671438 75.973491 
L 479.814715 71.536793 
L 479.886353 71.833469 
L 479.957991 72.091858 
L 480.029629 71.93679 
L 480.459458 69.780977 
L 480.531096 69.698688 
L 480.674372 70.142788 
L 481.390753 74.507257 
L 481.677306 76.047541 
L 481.820582 76.041662 
L 482.250411 77.80856 
L 483.396621 84.481527 
L 483.468259 84.467302 
L 483.539897 84.250126 
L 483.969726 85.847952 
L 484.542831 89.570346 
L 485.115936 92.775373 
L 485.187574 92.925058 
L 485.259212 92.857389 
L 485.545765 92.549848 
L 485.689041 92.785186 
L 486.190508 95.748175 
L 487.121804 100.847842 
L 487.766547 103.803186 
L 488.626204 108.625301 
L 488.769481 108.205085 
L 488.912757 107.822107 
L 489.127671 108.123719 
L 489.342586 109.176574 
L 490.202243 114.390927 
L 490.273881 114.356753 
L 490.488796 113.536781 
L 490.70371 112.504862 
L 490.846986 112.361834 
L 490.990263 112.931892 
L 492.064834 119.406867 
L 492.136473 118.900296 
L 492.208111 118.975123 
L 492.351387 119.593714 
L 492.566301 119.427777 
L 492.852854 121.082851 
L 493.999064 127.678309 
L 494.643807 130.832833 
L 495.360188 134.851643 
L 495.503465 134.334466 
L 496.004932 131.019247 
L 496.07657 131.03174 
L 496.291484 132.295927 
L 497.079503 136.809563 
L 497.22278 136.333539 
L 497.724247 133.067494 
L 497.795885 133.124042 
L 498.154075 135.530739 
L 499.085371 141.444962 
L 499.658476 143.913385 
L 500.66141 150.730599 
L 500.804686 150.987133 
L 500.876324 150.977224 
L 500.947962 150.714352 
L 501.0196 151.05624 
L 501.091239 150.966271 
L 501.162877 150.9284 
L 502.022534 157.182914 
L 502.595639 160.695183 
L 503.025468 162.664387 
L 503.741849 168.032487 
L 503.885126 163.588055 
L 503.956764 163.596616 
L 505.031336 171.376 
L 505.890993 177.595757 
L 506.034269 177.683011 
L 506.607374 180.467651 
L 507.610308 186.233183 
L 507.753584 186.633275 
L 508.040137 185.957502 
L 508.183413 186.522303 
L 509.257985 193.66659 
L 509.616176 194.477375 
L 509.759452 194.893745 
L 510.404195 198.895403 
L 510.834024 201.378107 
L 510.905662 201.317061 
L 511.120576 199.998593 
L 511.478767 197.900594 
L 511.550405 197.989635 
L 511.908596 200.180905 
L 512.553339 204.112292 
L 512.624977 204.043616 
L 512.839892 202.753405 
L 513.198082 200.632877 
L 513.26972 200.732222 
L 513.627911 202.914131 
L 514.05774 205.653988 
L 514.201016 201.206397 
L 514.272654 201.40886 
L 514.41593 201.355659 
L 514.559207 200.588811 
L 514.845759 198.838481 
L 514.917397 198.778875 
L 515.060674 199.359563 
L 515.705417 203.105839 
L 515.920331 196.434913 
L 515.991969 196.671561 
L 516.063607 196.716747 
L 516.206884 196.241105 
L 516.565074 194.161742 
L 516.636712 194.021745 
L 516.70835 194.129344 
L 517.711284 200.500876 
L 517.782922 200.479736 
L 517.926199 199.842052 
L 518.284389 197.430963 
L 518.356027 197.466193 
L 518.499304 198.0655 
L 519.430599 203.810775 
L 519.502237 203.776996 
L 519.645514 203.059236 
L 520.075342 200.320151 
L 520.146981 200.411304 
L 520.576809 203.068322 
L 521.149914 206.422501 
L 521.221553 206.338382 
L 521.436467 204.94906 
L 521.794658 202.716348 
L 521.866296 202.831392 
L 522.296124 205.492722 
L 522.940868 209.022865 
L 523.155782 208.227422 
L 523.370696 207.321064 
L 523.513973 207.575308 
L 523.943801 210.214323 
L 524.803459 215.055404 
L 524.875097 215.087092 
L 525.018373 214.844415 
L 525.090011 215.222786 
L 525.16165 215.108446 
L 525.233288 215.029406 
L 525.376564 215.640092 
L 526.379498 222.19116 
L 526.451136 222.155963 
L 526.594412 222.099089 
L 526.66605 222.02198 
L 526.952603 223.000695 
L 527.668984 227.798653 
L 527.81226 228.796015 
L 527.955537 224.346479 
L 528.027175 224.801907 
L 528.098813 225.080709 
L 528.170451 224.958485 
L 528.528642 223.144625 
L 528.671918 223.325902 
L 529.316661 227.603405 
L 529.818128 230.884991 
L 529.889766 230.791678 
L 530.319595 229.424057 
L 530.749424 216.076413 
L 530.821062 216.54485 
L 531.035976 217.944771 
L 531.609081 202.141858 
L 531.823995 201.524165 
L 531.895634 201.409632 
L 532.03891 201.682371 
L 532.468739 188.341718 
L 532.540377 188.811319 
L 532.755291 190.215613 
L 533.256758 174.655215 
L 533.328396 174.896481 
L 534.116416 178.322448 
L 535.119349 184.714721 
L 535.405902 183.747787 
L 535.835731 186.114905 
L 536.767026 191.827757 
L 536.910303 191.266347 
L 537.125217 190.618303 
L 537.268493 191.262518 
L 538.486341 198.821073 
L 538.557979 198.595699 
L 538.91617 197.701857 
L 538.987808 197.751152 
L 539.274361 199.504419 
L 539.632551 201.921036 
L 540.205656 186.216576 
L 540.635485 184.731908 
L 540.707123 184.828834 
L 540.993676 175.937523 
L 541.065314 176.42258 
L 541.853333 181.241543 
L 542.211524 180.367156 
L 542.283162 180.426708 
L 542.426438 180.749171 
L 542.856267 183.551315 
L 543.572648 187.817798 
L 543.715925 187.239459 
L 544.074115 185.63892 
L 544.145753 185.769361 
L 544.575582 188.525987 
L 545.291963 192.69568 
L 545.43524 192.334751 
L 545.79343 190.913153 
L 545.865068 191.047205 
L 546.366535 194.501971 
L 547.011279 198.547249 
L 547.154555 198.18878 
L 547.512745 196.699026 
L 547.656022 197.420167 
L 548.87387 204.874683 
L 549.160422 204.562458 
L 549.232061 204.579878 
L 549.518613 206.2271 
L 550.163356 210.50401 
L 550.306632 206.056011 
L 550.378271 206.435357 
L 550.449909 206.594467 
L 550.521547 206.543148 
L 550.951376 204.94427 
L 551.023014 205.069024 
L 551.309566 206.846587 
L 551.739395 209.821739 
L 552.097586 198.702586 
L 552.169224 198.984027 
L 552.3125 199.098744 
L 553.100519 203.84893 
L 553.960177 209.365746 
L 554.031815 209.493284 
L 554.103453 209.452783 
L 554.175091 209.432878 
L 554.390006 210.24319 
L 554.676558 212.059161 
L 555.679492 183.630466 
L 555.894406 182.673802 
L 556.109321 178.110274 
L 556.180959 178.231789 
L 556.467511 169.341586 
L 556.53915 169.811107 
L 557.470445 175.263982 
L 557.542083 175.336738 
L 557.68536 175.063199 
L 558.04355 176.178001 
L 559.118122 183.031877 
L 559.333037 182.634848 
L 559.691227 183.961518 
L 560.407608 188.74128 
L 560.622523 182.072163 
L 560.694161 182.446753 
L 560.765799 182.598373 
L 560.980713 182.042621 
L 561.12399 181.763764 
L 561.195628 181.847497 
L 561.625457 168.511841 
L 561.697095 168.998088 
L 562.126924 171.850138 
L 562.341838 165.18315 
L 562.413476 165.661612 
L 562.556752 166.023864 
L 562.700029 166.005421 
L 562.914943 165.805542 
L 563.129857 166.829851 
L 564.276067 173.881098 
L 564.419344 174.268936 
L 564.849172 175.942686 
L 566.067021 182.956666 
L 566.138659 182.873604 
L 566.353573 181.756767 
L 566.425211 181.770623 
L 566.496849 181.86129 
L 566.85504 184.005794 
L 567.643059 188.527747 
L 567.786336 188.031972 
L 567.929612 187.535992 
L 568.287803 188.819393 
L 568.574355 179.927412 
L 568.645993 180.380676 
L 568.932546 182.191783 
L 569.290736 171.078431 
L 569.362374 171.391836 
L 569.505651 171.788011 
L 570.007118 173.937273 
L 571.153328 180.855207 
L 571.654795 181.187465 
L 572.371176 185.645412 
L 572.514452 186.556711 
L 572.801005 177.665109 
L 572.872643 177.670063 
L 573.015919 177.186894 
L 574.52032 133.229859 
L 574.591958 133.273347 
L 574.735234 132.867281 
L 575.021787 132.10341 
L 575.523253 116.560095 
L 575.594892 117.039739 
L 575.738168 117.998089 
L 576.311273 102.45106 
L 576.741102 101.62172 
L 576.884378 102.348441 
L 578.102226 110.080342 
L 578.675331 112.76013 
L 579.821541 120.010559 
L 580.466284 123.505609 
L 581.469218 129.657129 
L 581.755771 129.258365 
L 581.899047 129.672101 
L 581.970685 130.09863 
L 582.185599 123.436902 
L 582.257237 123.447149 
L 583.331809 130.39081 
L 583.546724 130.693143 
L 583.833276 132.592434 
L 585.194401 141.606427 
L 585.409315 142.140578 
L 586.268973 147.903458 
L 586.412249 143.460718 
L 586.483887 143.965094 
L 586.627163 144.292491 
L 586.842078 143.831427 
L 587.271906 145.728966 
L 587.343545 143.50764 
L 587.415183 143.517044 
L 588.346478 149.251491 
L 588.561393 149.27155 
L 588.704669 149.502771 
L 588.991221 151.203451 
L 590.065793 158.354426 
L 590.352346 158.189924 
L 590.56726 158.79462 
L 592.000023 167.271481 
L 592.358213 168.858348 
L 593.576062 176.250816 
L 593.934252 177.512652 
L 594.937186 184.04681 
L 595.510291 187.424041 
L 596.226672 192.045835 
L 597.014692 196.833806 
L 597.157968 196.855928 
L 597.945987 201.717976 
L 598.734007 206.70992 
L 598.805645 206.64636 
L 598.948921 207.032243 
L 599.092197 207.676972 
L 600.238408 172.105339 
L 600.310046 172.461738 
L 600.381684 172.583434 
L 600.453322 172.521146 
L 600.739874 172.051511 
L 600.883151 172.580183 
L 601.241341 161.468849 
L 601.312979 161.974718 
L 602.100999 167.182864 
L 602.244275 167.091868 
L 602.459189 167.671197 
L 603.462123 174.586392 
L 603.820314 176.457529 
L 604.035228 176.093761 
L 604.106866 175.983401 
L 604.321781 176.750346 
L 605.539629 184.992252 
L 605.611267 184.934779 
L 605.89782 184.399488 
L 606.041096 184.538189 
L 606.184372 185.037958 
L 606.399287 178.369309 
L 606.470925 178.877982 
L 607.258944 184.136766 
L 607.40222 184.017416 
L 607.617135 183.829959 
L 607.760411 184.511459 
L 608.118602 173.39762 
L 608.19024 173.89596 
L 608.978259 179.106124 
L 609.121535 178.987269 
L 609.264812 178.827367 
L 609.33645 178.886509 
L 609.551364 180.462691 
L 609.837917 182.065389 
L 609.981193 177.619778 
L 610.052831 178.153081 
L 610.196107 179.208725 
L 610.339384 174.763355 
L 610.411022 175.300994 
L 610.912489 178.960843 
L 611.843784 150.072745 
L 611.915422 150.594203 
L 612.488527 154.246652 
L 612.77508 155.022205 
L 613.276547 139.472152 
L 613.348185 139.481726 
L 614.136204 144.650247 
L 614.207842 144.634683 
L 614.422757 144.403803 
L 614.494395 144.394981 
L 614.637671 144.988188 
L 615.855519 153.218506 
L 615.927158 153.223281 
L 616.142072 153.663737 
L 616.571901 156.359912 
L 617.933025 165.266899 
L 619.150873 173.893383 
L 619.437426 175.46942 
L 619.509064 175.597415 
L 619.795616 177.602326 
L 620.941826 186.221545 
L 621.228379 187.159151 
L 621.371655 187.84332 
L 622.876056 197.822775 
L 623.019332 198.147775 
L 624.380457 208.096345 
L 624.738647 210.099535 
L 625.096838 212.58178 
L 626.243048 220.540864 
L 626.386324 220.570827 
L 626.601239 221.215342 
L 627.102705 205.645831 
L 627.174344 206.171631 
L 627.890725 211.078387 
L 628.034001 211.059161 
L 628.177277 210.910841 
L 628.248916 210.97749 
L 628.392192 211.662704 
L 629.681678 220.40234 
L 629.824954 220.394346 
L 630.039869 220.741152 
L 630.684612 225.296343 
L 631.400993 230.024628 
L 631.615908 230.176954 
L 631.759184 230.727629 
L 633.120308 240.250217 
L 633.335223 240.469738 
L 633.550137 241.792852 
L 635.269452 255.105287 
L 635.34109 255.110004 
L 636.344024 226.185803 
L 636.558938 227.20326 
L 636.702215 227.408011 
L 636.845491 228.102074 
L 638.134977 236.901726 
L 638.42153 237.732115 
L 638.564806 237.946529 
L 638.77972 238.692862 
L 639.92593 243.020642 
L 640.069207 242.996654 
L 640.140845 242.918942 
L 640.499035 243.831179 
L 641.645245 247.673456 
L 641.788522 247.649669 
L 641.931798 247.487866 
L 642.003436 247.54314 
L 643.722751 253.025608 
L 643.794389 253.030412 
L 644.224218 239.676821 
L 644.295856 239.952055 
L 645.227152 243.05953 
L 645.370428 243.164229 
L 645.871895 244.89227 
L 647.304658 250.690739 
L 648.164315 254.023399 
L 650.098545 261.924288 
L 650.385097 262.939411 
L 650.67165 263.576782 
L 651.961136 267.846665 
L 652.462603 268.629293 
L 653.680451 272.151054 
L 653.752089 272.15945 
L 654.038642 272.612924 
L 654.11028 272.604927 
L 654.683385 274.1472 
L 656.975805 280.670876 
L 657.333995 281.674222 
L 657.54891 282.266287 
L 658.408567 285.177038 
L 662.205388 297.52547 
L 662.921769 300.201072 
L 664.211256 304.562737 
L 664.641084 305.878289 
L 665.787295 309.551857 
L 666.217123 310.475238 
L 667.793162 315.651197 
L 668.65282 319.113306 
L 670.013944 323.645792 
L 671.518345 328.450601 
L 671.804897 321.765799 
L 672.521279 324.301375 
L 672.879469 325.489125 
L 673.166022 326.521716 
L 673.452574 317.606602 
L 673.524212 317.868021 
L 674.956975 322.721478 
L 676.103185 325.925926 
L 676.461376 326.178999 
L 678.109053 330.442539 
L 678.252329 330.706212 
L 681.117854 339.296252 
L 681.476045 340.606038 
L 683.123721 346.186454 
L 683.840103 348.674148 
L 684.556484 350.897763 
L 684.843037 351.823762 
L 686.419075 356.572049 
L 686.63399 357.07733 
L 688.066752 361.510275 
L 688.353305 361.943971 
L 688.496581 362.172196 
L 690.502449 367.412727 
L 690.717363 360.721099 
L 690.789001 361.179947 
L 691.21883 363.93298 
L 691.433744 359.472427 
L 691.505382 359.47276 
L 691.720297 360.407788 
L 691.863573 360.961087 
L 691.935211 361.441463 
L 692.508316 343.601001 
L 692.579954 344.063028 
L 693.367974 349.799164 
L 693.654526 351.954268 
L 694.299269 331.887755 
L 694.370908 332.384007 
L 695.373841 340.023639 
L 698.382643 246.465803 
L 698.454281 246.944876 
L 698.525919 246.949935 
L 700.03032 200.232444 
L 700.101958 200.587458 
L 700.316872 200.843831 
L 700.460148 201.037575 
L 700.675063 202.300399 
L 701.964549 210.363095 
L 702.107825 210.504812 
L 702.251102 210.72685 
L 702.895845 190.713713 
L 702.967483 191.203947 
L 703.110759 192.181541 
L 703.46895 181.066092 
L 703.540588 181.543912 
L 703.82714 183.049202 
L 705.259903 140.838025 
L 705.474817 141.490608 
L 705.618094 137.048406 
L 705.689732 137.460037 
L 705.76137 137.469695 
L 706.262837 121.924802 
L 706.334475 122.387354 
L 707.552323 129.929727 
L 708.626895 96.629587 
L 708.698533 97.053413 
L 708.841809 97.772386 
L 709.128362 88.895699 
L 709.128362 88.895699 
" clip-path="url(#p08101ed7b1)" style="fill: none; stroke: #000000; stroke-linecap: square"/>
   </g>
   <g id="patch_3">
    <path d="M 81.65 383.56 
L 81.65 28.32 
" style="fill: none; stroke: #000000; stroke-width: 0.8; stroke-linejoin: miter; stroke-linecap: square"/>
   </g>
   <g id="patch_4">
    <path d="M 709.2 383.56 
L 709.2 28.32 
" style="fill: none; stroke: #000000; stroke-width: 0.8; stroke-linejoin: miter; stroke-linecap: square"/>
   </g>
   <g id="patch_5">
    <path d="M 81.65 383.56 
L 709.2 383.56 
" style="fill: none; stroke: #000000; stroke-width: 0.8; stroke-linejoin: miter; stroke-linecap: square"/>
   </g>
   <g id="patch_6">
    <path d="M 81.65 28.32 
L 709.2 28.32 
" style="fill: none; stroke: #000000; stroke-width: 0.8; stroke-linejoin: miter; stroke-linecap: square"/>
   </g>
   <g id="text_19">
    <!-- storage_level_battery over Time -->
    <g transform="translate(266.30875 22.32) scale(0.16 -0.16)">
     <use xlink:href="#DejaVuSans-73"/>
     <use xlink:href="#DejaVuSans-74" x="52.099609"/>
     <use xlink:href="#DejaVuSans-6f" x="91.308594"/>
     <use xlink:href="#DejaVuSans-72" x="152.490234"/>
     <use xlink:href="#DejaVuSans-61" x="193.603516"/>
     <use xlink:href="#DejaVuSans-67" x="254.882812"/>
     <use xlink:href="#DejaVuSans-65" x="318.359375"/>
     <use xlink:href="#DejaVuSans-5f" x="379.882812"/>
     <use xlink:href="#DejaVuSans-6c" x="429.882812"/>
     <use xlink:href="#DejaVuSans-65" x="457.666016"/>
     <use xlink:href="#DejaVuSans-76" x="519.189453"/>
     <use xlink:href="#DejaVuSans-65" x="578.369141"/>
     <use xlink:href="#DejaVuSans-6c" x="639.892578"/>
     <use xlink:href="#DejaVuSans-5f" x="667.675781"/>
     <use xlink:href="#DejaVuSans-62" x="717.675781"/>
     <use xlink:href="#DejaVuSans-61" x="781.152344"/>
     <use xlink:href="#DejaVuSans-74" x="842.431641"/>
     <use xlink:href="#DejaVuSans-74" x="881.640625"/>
     <use xlink:href="#DejaVuSans-65" x="920.849609"/>
     <use xlink:href="#DejaVuSans-72" x="982.373047"/>
     <use xlink:href="#DejaVuSans-79" x="1023.486328"/>
     <use xlink:href="#DejaVuSans-20" x="1082.666016"/>
     <use xlink:href="#DejaVuSans-6f" x="1114.453125"/>
     <use xlink:href="#DejaVuSans-76" x="1175.634766"/>
     <use xlink:href="#DejaVuSans-65" x="1234.814453"/>
     <use xlink:href="#DejaVuSans-72" x="1296.337891"/>
     <use xlink:href="#DejaVuSans-20" x="1337.451172"/>
     <use xlink:href="#DejaVuSans-54" x="1369.238281"/>
     <use xlink:href="#DejaVuSans-69" x="1427.197266"/>
     <use xlink:href="#DejaVuSans-6d" x="1454.980469"/>
     <use xlink:href="#DejaVuSans-65" x="1552.392578"/>
    </g>
   </g>
   <g id="legend_1">
    <g id="patch_7">
     <path d="M 532.475625 55.8675 
L 700.8 55.8675 
Q 703.2 55.8675 703.2 53.4675 
L 703.2 36.72 
Q 703.2 34.32 700.8 34.32 
L 532.475625 34.32 
Q 530.075625 34.32 530.075625 36.72 
L 530.075625 53.4675 
Q 530.075625 55.8675 532.475625 55.8675 
z
" style="fill: #ffffff; opacity: 0.8; stroke: #cccccc; stroke-linejoin: miter"/>
    </g>
    <g id="line2d_34">
     <path d="M 534.875625 44.038125 
L 546.875625 44.038125 
L 558.875625 44.038125 
" style="fill: none; stroke: #000000; stroke-linecap: square"/>
    </g>
    <g id="text_20">
     <!-- storage_level_battery -->
     <g transform="translate(568.475625 48.238125) scale(0.12 -0.12)">
      <use xlink:href="#DejaVuSans-73"/>
      <use xlink:href="#DejaVuSans-74" x="52.099609"/>
      <use xlink:href="#DejaVuSans-6f" x="91.308594"/>
      <use xlink:href="#DejaVuSans-72" x="152.490234"/>
      <use xlink:href="#DejaVuSans-61" x="193.603516"/>
      <use xlink:href="#DejaVuSans-67" x="254.882812"/>
      <use xlink:href="#DejaVuSans-65" x="318.359375"/>
      <use xlink:href="#DejaVuSans-5f" x="379.882812"/>
      <use xlink:href="#DejaVuSans-6c" x="429.882812"/>
      <use xlink:href="#DejaVuSans-65" x="457.666016"/>
      <use xlink:href="#DejaVuSans-76" x="519.189453"/>
      <use xlink:href="#DejaVuSans-65" x="578.369141"/>
      <use xlink:href="#DejaVuSans-6c" x="639.892578"/>
      <use xlink:href="#DejaVuSans-5f" x="667.675781"/>
      <use xlink:href="#DejaVuSans-62" x="717.675781"/>
      <use xlink:href="#DejaVuSans-61" x="781.152344"/>
      <use xlink:href="#DejaVuSans-74" x="842.431641"/>
      <use xlink:href="#DejaVuSans-74" x="881.640625"/>
      <use xlink:href="#DejaVuSans-65" x="920.849609"/>
      <use xlink:href="#DejaVuSans-72" x="982.373047"/>
      <use xlink:href="#DejaVuSans-79" x="1023.486328"/>
     </g>
    </g>
   </g>
  </g>
 </g>
 <defs>
  <clipPath id="p08101ed7b1">
   <rect x="81.65" y="28.32" width="627.55" height="355.24"/>
  </clipPath>
 </defs>
</svg>
